<svg width="192" height="192" viewBox="0 0 192 192" fill="none" xmlns="http://www.w3.org/2000/svg">
<rect width="192" height="192" rx="24" fill="url(#gradient0_linear_1_1)"/>
<path d="M96 48C78.3 48 64 62.3 64 80V64H128V80C128 62.3 113.7 48 96 48Z" fill="white"/>
<path d="M96 144C78.3 144 64 158.7 64 176H128C128 158.7 113.7 144 96 144Z" fill="white"/>
<path d="M144 80C144 62.3 129.7 48 112 48C94.3 48 80 62.3 80 80V144C80 161.7 94.3 176 112 176C129.7 176 144 161.7 144 144V80Z" fill="white"/>
<defs>
<linearGradient id="gradient0_linear_1_1" x1="0" y1="0" x2="192" y2="192" gradientUnits="userSpaceOnUse">
<stop stop-color="#3b82f6"/>
<stop offset="1" stop-color="#8b5cf6"/>
</linearGradient>
</defs>
</svg>
