<svg width="512" height="512" viewBox="0 0 512 512" fill="none" xmlns="http://www.w3.org/2000/svg">
<rect width="512" height="512" rx="64" fill="url(#gradient0_linear_1_1)"/>
<path d="M256 128C192.8 128 128 192.8 128 256V192H384V256C384 192.8 319.2 128 256 128Z" fill="white"/>
<path d="M256 384C192.8 384 128 448.8 128 512H384C384 448.8 319.2 384 256 384Z" fill="white"/>
<path d="M384 256C384 192.8 319.2 128 256 128C192.8 128 128 192.8 128 256V384C128 447.2 192.8 512 256 512C319.2 512 384 447.2 384 384V256Z" fill="white"/>
<defs>
<linearGradient id="gradient0_linear_1_1" x1="0" y1="0" x2="512" y2="512" gradientUnits="userSpaceOnUse">
<stop stop-color="#3b82f6"/>
<stop offset="1" stop-color="#8b5cf6"/>
</linearGradient>
</defs>
</svg>
